<svg width="20" height="21" viewBox="0 0 20 21" fill="none" xmlns="http://www.w3.org/2000/svg">
<path fill-rule="evenodd" clip-rule="evenodd" d="M6.41277 11.659C5.87547 11.659 5.43896 11.2225 5.43896 10.6852C5.43896 10.1495 5.87547 9.71301 6.41277 9.71301C6.95008 9.71301 7.38658 10.1495 7.38658 10.6852C7.38658 11.2225 6.95008 11.659 6.41277 11.659ZM10.1985 11.659C9.66117 11.659 9.22466 11.2225 9.22466 10.6852C9.22466 10.1495 9.66117 9.71301 10.1985 9.71301C10.7358 9.71301 11.1723 10.1495 11.1723 10.6852C11.1723 11.2225 10.7358 11.659 10.1985 11.659ZM13.0105 10.6852C13.0105 11.2225 13.447 11.659 13.9843 11.659C14.5216 11.659 14.9581 11.2225 14.9581 10.6852C14.9581 10.1495 14.5216 9.71301 13.9843 9.71301C13.447 9.71301 13.0105 10.1495 13.0105 10.6852Z" fill="url(#paint0_linear_2672_505)"/>
<path fill-rule="evenodd" clip-rule="evenodd" d="M10.0167 2.16666C5.17508 2.16666 1.66675 6.12176 1.66675 10.5125C1.66675 11.9146 2.07508 13.3576 2.79175 14.6763C2.92508 14.8941 2.94175 15.1687 2.85008 15.4282L2.29175 17.2977C2.16675 17.7484 2.55008 18.0814 2.97508 17.9478L4.65841 17.4479C5.11675 17.2977 5.47508 17.4888 5.90008 17.7484C7.11675 18.4653 8.63342 18.8333 10.0001 18.8333C14.1334 18.8333 18.3334 15.6369 18.3334 10.4875C18.3334 6.04664 14.7501 2.16666 10.0167 2.16666Z" stroke="url(#paint1_linear_2672_505)" stroke-width="1.5" stroke-linecap="round" stroke-linejoin="round"/>
<defs>
<linearGradient id="paint0_linear_2672_505" x1="14.9581" y1="11.659" x2="5.3444" y2="10.8799" gradientUnits="userSpaceOnUse">
<stop stop-color="#888BF4"/>
<stop offset="1" stop-color="#5151C6"/>
</linearGradient>
<linearGradient id="paint1_linear_2672_505" x1="18.3334" y1="18.8333" x2="1.39527" y2="18.5527" gradientUnits="userSpaceOnUse">
<stop stop-color="#888BF4"/>
<stop offset="1" stop-color="#5151C6"/>
</linearGradient>
</defs>
</svg>
