<svg width="24" height="24" viewBox="0 0 24 24" fill="none" xmlns="http://www.w3.org/2000/svg">
<path d="M20.1195 5.08524C19.6504 4.61438 19.0934 4.24085 18.4803 3.98601C17.8672 3.73117 17.2101 3.6 16.5465 3.6C15.8828 3.6 15.2257 3.73117 14.6127 3.98601C13.9996 4.24085 13.4426 4.61438 12.9734 5.08524L11.9998 6.06199L11.0261 5.08524C10.0785 4.13457 8.79324 3.60049 7.45309 3.60049C6.11293 3.60049 4.82767 4.13457 3.88003 5.08524C2.9324 6.03591 2.40002 7.32529 2.40002 8.66974C2.40002 10.0142 2.9324 11.3036 3.88003 12.2542L4.85367 13.231L11.9998 20.4L19.1459 13.231L20.1195 12.2542C20.5889 11.7836 20.9612 11.2248 21.2152 10.6098C21.4693 9.99471 21.6 9.33549 21.6 8.66974C21.6 8.00399 21.4693 7.34477 21.2152 6.72973C20.9612 6.11469 20.5889 5.55588 20.1195 5.08524V5.08524Z" stroke="#242424" stroke-width="1.5" stroke-linecap="round" stroke-linejoin="round"/>
</svg>
