<svg width="20" height="21" viewBox="0 0 20 21" fill="none" xmlns="http://www.w3.org/2000/svg">
<path d="M16.7663 4.7377C16.3753 4.34531 15.9111 4.03404 15.4002 3.82168C14.8893 3.60931 14.3417 3.5 13.7887 3.5C13.2357 3.5 12.6881 3.60931 12.1772 3.82168C11.6663 4.03404 11.2021 4.34531 10.8112 4.7377L9.9998 5.55166L9.18843 4.7377C8.39874 3.94548 7.32768 3.50041 6.21089 3.50041C5.09409 3.50041 4.02303 3.94548 3.23334 4.7377C2.44365 5.52993 2 6.60441 2 7.72479C2 8.84516 2.44365 9.91965 3.23334 10.7119L4.0447 11.5258L9.9998 17.5L15.9549 11.5258L16.7663 10.7119C17.1574 10.3197 17.4677 9.854 17.6794 9.34146C17.891 8.82893 18 8.27958 18 7.72479C18 7.17 17.891 6.62064 17.6794 6.10811C17.4677 5.59558 17.1574 5.1299 16.7663 4.7377V4.7377Z" stroke="url(#paint0_linear_2672_514)" stroke-width="1.5" stroke-linecap="round" stroke-linejoin="round"/>
<defs>
<linearGradient id="paint0_linear_2672_514" x1="18" y1="17.5" x2="1.74075" y2="17.1921" gradientUnits="userSpaceOnUse">
<stop stop-color="#888BF4"/>
<stop offset="1" stop-color="#5151C6"/>
</linearGradient>
</defs>
</svg>
